<svg width="2128" height="367" viewBox="0 0 2128 367" fill="none" xmlns="http://www.w3.org/2000/svg">
<path d="M205.626 21.0196C231.215 26.2288 245.197 33.7227 267.953 54.5595C290.252 74.848 341.887 127.762 347.005 135.439C356.51 149.787 360.622 165.689 359.8 184.607C359.251 196.213 358.155 201.331 354.682 210.104C350.295 220.888 344.995 227.377 316.298 256.164C259.18 313.74 250.315 322.148 237.978 330.373C221.528 341.522 206.631 345.726 184.149 345.726C164.592 345.726 151.158 342.802 136.627 335.582C121.182 327.905 116.613 323.975 71.1921 279.652C23.761 233.317 22.0246 231.398 16.724 220.34C11.1492 208.459 8.86449 197.949 8.95588 183.693C8.95588 169.345 10.6923 161.211 15.9929 150.701C21.2021 140.374 24.0351 136.81 42.6786 117.161C52.3658 106.926 60.1339 98.1523 59.7684 97.6953C59.4942 97.2384 59.7684 96.9642 60.4995 97.0556C61.1392 97.2384 61.5962 96.7814 61.4134 96.1417C61.322 95.4106 61.5048 95.1364 61.9617 95.4106C63.0584 96.0503 89.7441 69.0905 88.9216 68.0852C88.556 67.7196 88.6474 67.6282 89.1958 67.9024C89.7441 68.1766 94.8619 63.6985 100.619 57.9409C111.312 47.0656 120.908 39.2061 129.773 33.7227C132.514 32.0778 135.073 30.3413 135.347 29.8844C135.622 29.4275 136.17 29.1533 136.535 29.2447C136.901 29.3361 140.282 28.148 144.212 26.6858C148.051 25.2235 152.711 23.6699 154.448 23.213C156.184 22.8474 157.829 22.4819 158.103 22.3905C158.378 22.2991 160.114 21.9335 161.942 21.568C163.861 21.111 165.232 20.5627 165.049 20.1971C164.866 19.9229 171.72 19.466 180.311 19.3746C193.654 19.1005 197.492 19.3746 205.626 21.0196Z" fill="white"/>
<path d="M186.983 82.7075C182.048 84.4439 177.296 88.465 174.097 93.6742L171.355 98.0609L171.081 179.032C170.898 236.516 171.081 261.008 171.812 263.476C173.183 268.319 178.392 273.711 183.51 275.722C190.181 278.281 200.234 277.915 206.175 274.808C212.572 271.609 216.319 268.228 218.695 263.75L220.705 260.003V180.951V101.899L218.604 97.3297C215.862 91.4808 208.642 84.6266 203.159 82.7988C197.95 81.0625 191.735 80.9711 186.983 82.7075Z" fill="#064276"/>
<path d="M242.273 161.028C242.365 191.826 242.639 222.99 243.004 230.301L243.553 243.553L251.321 236.242C259.911 228.199 279.195 207.911 286.871 199.046C295.553 188.902 298.112 180.403 296.102 169.07C295.005 163.039 292.355 157.007 288.608 151.981C285.409 147.777 243.918 105.098 243.004 105.098C242.547 105.098 242.273 129.59 242.273 161.028Z" fill="#064276"/>
<path d="M114.51 129.682C107.839 131.966 103.452 135.256 94.3134 144.852C81.6102 158.104 76.858 169.345 76.7666 186.16C76.7666 195.391 78.9599 202.976 83.5294 209.19C88.7386 216.227 110.672 236.881 115.698 239.44C121.913 242.639 132.057 242.639 137.997 239.623C143.755 236.607 146.679 233.591 148.964 228.382C150.792 223.995 150.883 222.807 150.609 184.789C150.335 140.922 150.609 143.207 143.207 135.439C136.352 128.402 124.837 126.026 114.51 129.682Z" fill="#064276"/>
<mask id="path-5-inside-1_2058_4497" fill="white">
<path d="M568.393 125.691V292.923H541.446L462.648 179.013H461.26V292.923H430.966V125.691H458.076L536.792 239.683H538.262V125.691H568.393ZM601.402 292.923V125.691H710.168V151.086H631.696V196.487H704.533V221.882H631.696V267.528H710.821V292.923H601.402ZM741.074 292.923V125.691H803.786C816.633 125.691 827.412 127.923 836.122 132.387C844.886 136.851 851.5 143.111 855.964 151.168C860.482 159.17 862.742 168.506 862.742 179.176C862.742 189.9 860.455 199.209 855.882 207.102C851.364 214.941 844.696 221.011 835.877 225.312C827.058 229.558 816.225 231.681 803.378 231.681H758.712V206.531H799.295C806.807 206.531 812.959 205.496 817.749 203.428C822.54 201.305 826.078 198.229 828.364 194.201C830.705 190.118 831.876 185.11 831.876 179.176C831.876 173.242 830.705 168.18 828.364 163.988C826.024 159.742 822.458 156.53 817.668 154.353C812.877 152.121 806.698 151.005 799.132 151.005H771.369V292.923H741.074ZM827.466 217.146L868.866 292.923H835.06L794.396 217.146H827.466ZM908.734 125.691L952.257 257.321H953.972L997.413 125.691H1030.73L971.773 292.923H934.374L875.5 125.691H908.734ZM1052.75 292.923V125.691H1161.52V151.086H1083.05V196.487H1155.89V221.882H1083.05V267.528H1162.17V292.923H1052.75ZM1283.31 171.664C1282.55 164.532 1279.34 158.98 1273.67 155.006C1268.07 151.032 1260.77 149.045 1251.79 149.045C1245.48 149.045 1240.06 149.998 1235.54 151.903C1231.02 153.808 1227.57 156.394 1225.17 159.66C1222.78 162.927 1221.55 166.655 1221.5 170.847C1221.5 174.331 1222.29 177.352 1223.86 179.911C1225.5 182.469 1227.7 184.647 1230.48 186.443C1233.26 188.185 1236.33 189.655 1239.71 190.853C1243.08 192.05 1246.48 193.058 1249.91 193.874L1265.59 197.794C1271.91 199.263 1277.98 201.25 1283.8 203.754C1289.68 206.259 1294.93 209.416 1299.56 213.227C1304.24 217.037 1307.94 221.637 1310.66 227.026C1313.39 232.416 1314.75 238.73 1314.75 245.97C1314.75 255.769 1312.24 264.397 1307.24 271.855C1302.23 279.259 1294.99 285.056 1285.51 289.248C1276.1 293.385 1264.69 295.454 1251.3 295.454C1238.29 295.454 1226.99 293.44 1217.41 289.411C1207.89 285.383 1200.43 279.504 1195.04 271.774C1189.71 264.044 1186.82 254.626 1186.38 243.521H1216.19C1216.62 249.346 1218.42 254.191 1221.58 258.056C1224.74 261.921 1228.85 264.806 1233.91 266.711C1239.03 268.616 1244.74 269.569 1251.06 269.569C1257.64 269.569 1263.41 268.589 1268.37 266.629C1273.38 264.615 1277.29 261.839 1280.13 258.301C1282.96 254.708 1284.4 250.516 1284.45 245.726C1284.4 241.371 1283.12 237.778 1280.62 234.947C1278.11 232.062 1274.6 229.667 1270.08 227.761C1265.62 225.802 1260.39 224.06 1254.4 222.535L1235.38 217.636C1221.61 214.097 1210.72 208.735 1202.72 201.55C1194.77 194.31 1190.79 184.701 1190.79 172.725C1190.79 162.872 1193.46 154.244 1198.8 146.84C1204.19 139.437 1211.51 133.694 1220.76 129.611C1230.02 125.474 1240.5 123.405 1252.2 123.405C1264.07 123.405 1274.46 125.474 1283.39 129.611C1292.37 133.694 1299.42 139.382 1304.54 146.677C1309.66 153.917 1312.3 162.246 1312.46 171.664H1283.31ZM1341.76 292.923V125.691H1404.47C1417.31 125.691 1428.09 128.087 1436.8 132.877C1445.57 137.668 1452.18 144.255 1456.65 152.638C1461.16 160.967 1463.42 170.439 1463.42 181.054C1463.42 191.778 1461.16 201.305 1456.65 209.634C1452.13 217.963 1445.46 224.522 1436.64 229.313C1427.82 234.049 1416.96 236.417 1404.06 236.417H1362.5V211.512H1399.98C1407.49 211.512 1413.64 210.205 1418.43 207.592C1423.22 204.979 1426.76 201.386 1429.05 196.814C1431.39 192.241 1432.56 186.988 1432.56 181.054C1432.56 175.12 1431.39 169.894 1429.05 165.376C1426.76 160.858 1423.19 157.347 1418.35 154.843C1413.56 152.284 1407.38 151.005 1399.81 151.005H1372.05V292.923H1341.76ZM1492.57 292.923H1460.24L1519.11 125.691H1556.51L1615.47 292.923H1583.13L1538.46 159.987H1537.16L1492.57 292.923ZM1493.64 227.353H1581.82V251.686H1493.64V227.353ZM1637.49 292.923V125.691H1700.2C1713.05 125.691 1723.83 127.923 1732.54 132.387C1741.3 136.851 1747.92 143.111 1752.38 151.168C1756.9 159.17 1759.16 168.506 1759.16 179.176C1759.16 189.9 1756.87 199.209 1752.3 207.102C1747.78 214.941 1741.11 221.011 1732.29 225.312C1723.48 229.558 1712.64 231.681 1699.8 231.681H1655.13V206.531H1695.71C1703.23 206.531 1709.38 205.496 1714.17 203.428C1718.96 201.305 1722.5 198.229 1724.78 194.201C1727.12 190.118 1728.29 185.11 1728.29 179.176C1728.29 173.242 1727.12 168.18 1724.78 163.988C1722.44 159.742 1718.88 156.53 1714.09 154.353C1709.29 152.121 1703.12 151.005 1695.55 151.005H1667.79V292.923H1637.49ZM1723.88 217.146L1765.28 292.923H1731.48L1690.81 217.146H1723.88ZM1787.04 292.923V125.691H1817.34V202.53H1819.38L1884.62 125.691H1921.61L1856.94 200.733L1922.19 292.923H1885.77L1835.88 221.229L1817.34 243.113V292.923H1787.04ZM2032.65 171.664C2031.88 164.532 2028.67 158.98 2023.01 155.006C2017.4 151.032 2010.11 149.045 2001.13 149.045C1994.81 149.045 1989.39 149.998 1984.88 151.903C1980.36 153.808 1976.9 156.394 1974.51 159.66C1972.11 162.927 1970.89 166.655 1970.83 170.847C1970.83 174.331 1971.62 177.352 1973.2 179.911C1974.83 182.469 1977.04 184.647 1979.81 186.443C1982.59 188.185 1985.67 189.655 1989.04 190.853C1992.42 192.05 1995.82 193.058 1999.25 193.874L2014.93 197.794C2021.24 199.263 2027.31 201.25 2033.14 203.754C2039.01 206.259 2044.27 209.416 2048.89 213.227C2053.58 217.037 2057.28 221.637 2060 227.026C2062.72 232.416 2064.08 238.73 2064.08 245.97C2064.08 255.769 2061.58 264.397 2056.57 271.855C2051.56 279.259 2044.32 285.056 2034.85 289.248C2025.43 293.385 2014.03 295.454 2000.64 295.454C1987.63 295.454 1976.33 293.44 1966.75 289.411C1957.22 285.383 1949.76 279.504 1944.38 271.774C1939.04 264.044 1936.16 254.626 1935.72 243.521H1965.52C1965.96 249.346 1967.76 254.191 1970.91 258.056C1974.07 261.921 1978.18 264.806 1983.24 266.711C1988.36 268.616 1994.08 269.569 2000.39 269.569C2006.98 269.569 2012.75 268.589 2017.7 266.629C2022.71 264.615 2026.63 261.839 2029.46 258.301C2032.29 254.708 2033.73 250.516 2033.79 245.726C2033.73 241.371 2032.45 237.778 2029.95 234.947C2027.45 232.062 2023.94 229.667 2019.42 227.761C2014.95 225.802 2009.73 224.06 2003.74 222.535L1984.71 217.636C1970.94 214.097 1960.05 208.735 1952.05 201.55C1944.1 194.31 1940.13 184.701 1940.13 172.725C1940.13 162.872 1942.8 154.244 1948.13 146.84C1953.52 139.437 1960.84 133.694 1970.1 129.611C1979.35 125.474 1989.83 123.405 2001.53 123.405C2013.4 123.405 2023.8 125.474 2032.73 129.611C2041.71 133.694 2048.76 139.382 2053.88 146.677C2058.99 153.917 2061.63 162.246 2061.8 171.664H2032.65Z"/>
</mask>
<path d="M568.393 125.691V292.923H541.446L462.648 179.013H461.26V292.923H430.966V125.691H458.076L536.792 239.683H538.262V125.691H568.393ZM601.402 292.923V125.691H710.168V151.086H631.696V196.487H704.533V221.882H631.696V267.528H710.821V292.923H601.402ZM741.074 292.923V125.691H803.786C816.633 125.691 827.412 127.923 836.122 132.387C844.886 136.851 851.5 143.111 855.964 151.168C860.482 159.17 862.742 168.506 862.742 179.176C862.742 189.9 860.455 199.209 855.882 207.102C851.364 214.941 844.696 221.011 835.877 225.312C827.058 229.558 816.225 231.681 803.378 231.681H758.712V206.531H799.295C806.807 206.531 812.959 205.496 817.749 203.428C822.54 201.305 826.078 198.229 828.364 194.201C830.705 190.118 831.876 185.11 831.876 179.176C831.876 173.242 830.705 168.18 828.364 163.988C826.024 159.742 822.458 156.53 817.668 154.353C812.877 152.121 806.698 151.005 799.132 151.005H771.369V292.923H741.074ZM827.466 217.146L868.866 292.923H835.06L794.396 217.146H827.466ZM908.734 125.691L952.257 257.321H953.972L997.413 125.691H1030.73L971.773 292.923H934.374L875.5 125.691H908.734ZM1052.75 292.923V125.691H1161.52V151.086H1083.05V196.487H1155.89V221.882H1083.05V267.528H1162.17V292.923H1052.75ZM1283.31 171.664C1282.55 164.532 1279.34 158.98 1273.67 155.006C1268.07 151.032 1260.77 149.045 1251.79 149.045C1245.48 149.045 1240.06 149.998 1235.54 151.903C1231.02 153.808 1227.57 156.394 1225.17 159.66C1222.78 162.927 1221.55 166.655 1221.5 170.847C1221.5 174.331 1222.29 177.352 1223.86 179.911C1225.5 182.469 1227.7 184.647 1230.48 186.443C1233.26 188.185 1236.33 189.655 1239.71 190.853C1243.08 192.05 1246.48 193.058 1249.91 193.874L1265.59 197.794C1271.91 199.263 1277.98 201.25 1283.8 203.754C1289.68 206.259 1294.93 209.416 1299.56 213.227C1304.24 217.037 1307.94 221.637 1310.66 227.026C1313.39 232.416 1314.75 238.73 1314.75 245.97C1314.75 255.769 1312.24 264.397 1307.24 271.855C1302.23 279.259 1294.99 285.056 1285.51 289.248C1276.1 293.385 1264.69 295.454 1251.3 295.454C1238.29 295.454 1226.99 293.44 1217.41 289.411C1207.89 285.383 1200.43 279.504 1195.04 271.774C1189.71 264.044 1186.82 254.626 1186.38 243.521H1216.19C1216.62 249.346 1218.42 254.191 1221.58 258.056C1224.74 261.921 1228.85 264.806 1233.91 266.711C1239.03 268.616 1244.74 269.569 1251.06 269.569C1257.64 269.569 1263.41 268.589 1268.37 266.629C1273.38 264.615 1277.29 261.839 1280.13 258.301C1282.96 254.708 1284.4 250.516 1284.45 245.726C1284.4 241.371 1283.12 237.778 1280.62 234.947C1278.11 232.062 1274.6 229.667 1270.08 227.761C1265.62 225.802 1260.39 224.06 1254.4 222.535L1235.38 217.636C1221.61 214.097 1210.72 208.735 1202.72 201.55C1194.77 194.31 1190.79 184.701 1190.79 172.725C1190.79 162.872 1193.46 154.244 1198.8 146.84C1204.19 139.437 1211.51 133.694 1220.76 129.611C1230.02 125.474 1240.5 123.405 1252.2 123.405C1264.07 123.405 1274.46 125.474 1283.39 129.611C1292.37 133.694 1299.42 139.382 1304.54 146.677C1309.66 153.917 1312.3 162.246 1312.46 171.664H1283.31ZM1341.76 292.923V125.691H1404.47C1417.31 125.691 1428.09 128.087 1436.8 132.877C1445.57 137.668 1452.18 144.255 1456.65 152.638C1461.16 160.967 1463.42 170.439 1463.42 181.054C1463.42 191.778 1461.16 201.305 1456.65 209.634C1452.13 217.963 1445.46 224.522 1436.64 229.313C1427.82 234.049 1416.96 236.417 1404.06 236.417H1362.5V211.512H1399.98C1407.49 211.512 1413.64 210.205 1418.43 207.592C1423.22 204.979 1426.76 201.386 1429.05 196.814C1431.39 192.241 1432.56 186.988 1432.56 181.054C1432.56 175.12 1431.39 169.894 1429.05 165.376C1426.76 160.858 1423.19 157.347 1418.35 154.843C1413.56 152.284 1407.38 151.005 1399.81 151.005H1372.05V292.923H1341.76ZM1492.57 292.923H1460.24L1519.11 125.691H1556.51L1615.47 292.923H1583.13L1538.46 159.987H1537.16L1492.57 292.923ZM1493.64 227.353H1581.82V251.686H1493.64V227.353ZM1637.49 292.923V125.691H1700.2C1713.05 125.691 1723.83 127.923 1732.54 132.387C1741.3 136.851 1747.92 143.111 1752.38 151.168C1756.9 159.17 1759.16 168.506 1759.16 179.176C1759.16 189.9 1756.87 199.209 1752.3 207.102C1747.78 214.941 1741.11 221.011 1732.29 225.312C1723.48 229.558 1712.64 231.681 1699.8 231.681H1655.13V206.531H1695.71C1703.23 206.531 1709.38 205.496 1714.17 203.428C1718.96 201.305 1722.5 198.229 1724.78 194.201C1727.12 190.118 1728.29 185.11 1728.29 179.176C1728.29 173.242 1727.12 168.18 1724.78 163.988C1722.44 159.742 1718.88 156.53 1714.09 154.353C1709.29 152.121 1703.12 151.005 1695.55 151.005H1667.79V292.923H1637.49ZM1723.88 217.146L1765.28 292.923H1731.48L1690.81 217.146H1723.88ZM1787.04 292.923V125.691H1817.34V202.53H1819.38L1884.62 125.691H1921.61L1856.94 200.733L1922.19 292.923H1885.77L1835.88 221.229L1817.34 243.113V292.923H1787.04ZM2032.65 171.664C2031.88 164.532 2028.67 158.98 2023.01 155.006C2017.4 151.032 2010.11 149.045 2001.13 149.045C1994.81 149.045 1989.39 149.998 1984.88 151.903C1980.36 153.808 1976.9 156.394 1974.51 159.66C1972.11 162.927 1970.89 166.655 1970.83 170.847C1970.83 174.331 1971.62 177.352 1973.2 179.911C1974.83 182.469 1977.04 184.647 1979.81 186.443C1982.59 188.185 1985.67 189.655 1989.04 190.853C1992.42 192.05 1995.82 193.058 1999.25 193.874L2014.93 197.794C2021.24 199.263 2027.31 201.25 2033.14 203.754C2039.01 206.259 2044.27 209.416 2048.89 213.227C2053.58 217.037 2057.28 221.637 2060 227.026C2062.72 232.416 2064.08 238.73 2064.08 245.97C2064.08 255.769 2061.58 264.397 2056.57 271.855C2051.56 279.259 2044.32 285.056 2034.85 289.248C2025.43 293.385 2014.03 295.454 2000.64 295.454C1987.63 295.454 1976.33 293.44 1966.75 289.411C1957.22 285.383 1949.76 279.504 1944.38 271.774C1939.04 264.044 1936.16 254.626 1935.72 243.521H1965.52C1965.96 249.346 1967.76 254.191 1970.91 258.056C1974.07 261.921 1978.18 264.806 1983.24 266.711C1988.36 268.616 1994.08 269.569 2000.39 269.569C2006.98 269.569 2012.75 268.589 2017.7 266.629C2022.71 264.615 2026.63 261.839 2029.46 258.301C2032.29 254.708 2033.73 250.516 2033.79 245.726C2033.73 241.371 2032.45 237.778 2029.95 234.947C2027.45 232.062 2023.94 229.667 2019.42 227.761C2014.95 225.802 2009.73 224.06 2003.74 222.535L1984.71 217.636C1970.94 214.097 1960.05 208.735 1952.05 201.55C1944.1 194.31 1940.13 184.701 1940.13 172.725C1940.13 162.872 1942.8 154.244 1948.13 146.84C1953.52 139.437 1960.84 133.694 1970.1 129.611C1979.35 125.474 1989.83 123.405 2001.53 123.405C2013.4 123.405 2023.8 125.474 2032.73 129.611C2041.71 133.694 2048.76 139.382 2053.88 146.677C2058.99 153.917 2061.63 162.246 2061.8 171.664H2032.65Z" fill="white"/>
<path d="M568.393 125.691H575.578V118.506H568.393V125.691ZM568.393 292.923V300.108H575.578V292.923H568.393ZM541.446 292.923L535.537 297.011L537.68 300.108H541.446V292.923ZM462.648 179.013L468.558 174.925L466.415 171.827H462.648V179.013ZM461.26 179.013V171.827H454.075V179.013H461.26ZM461.26 292.923V300.108H468.446V292.923H461.26ZM430.966 292.923H423.78V300.108H430.966V292.923ZM430.966 125.691V118.506H423.78V125.691H430.966ZM458.076 125.691L463.989 121.608L461.846 118.506H458.076V125.691ZM536.792 239.683L530.879 243.766L533.021 246.869H536.792V239.683ZM538.262 239.683V246.869H545.447V239.683H538.262ZM538.262 125.691V118.506H531.076V125.691H538.262ZM561.207 125.691V292.923H575.578V125.691H561.207ZM568.393 285.737H541.446V300.108H568.393V285.737ZM547.356 288.835L468.558 174.925L456.739 183.101L535.537 297.011L547.356 288.835ZM462.648 171.827H461.26V186.198H462.648V171.827ZM454.075 179.013V292.923H468.446V179.013H454.075ZM461.26 285.737H430.966V300.108H461.26V285.737ZM438.152 292.923V125.691H423.78V292.923H438.152ZM430.966 132.877H458.076V118.506H430.966V132.877ZM452.163 129.775L530.879 243.766L542.705 235.6L463.989 121.608L452.163 129.775ZM536.792 246.869H538.262V232.497H536.792V246.869ZM545.447 239.683V125.691H531.076V239.683H545.447ZM538.262 132.877H568.393V118.506H538.262V132.877ZM601.402 292.923H594.216V300.108H601.402V292.923ZM601.402 125.691V118.506H594.216V125.691H601.402ZM710.168 125.691H717.353V118.506H710.168V125.691ZM710.168 151.086V158.272H717.353V151.086H710.168ZM631.696 151.086V143.901H624.511V151.086H631.696ZM631.696 196.487H624.511V203.673H631.696V196.487ZM704.533 196.487H711.719V189.301H704.533V196.487ZM704.533 221.882V229.068H711.719V221.882H704.533ZM631.696 221.882V214.696H624.511V221.882H631.696ZM631.696 267.528H624.511V274.713H631.696V267.528ZM710.821 267.528H718.007V260.342H710.821V267.528ZM710.821 292.923V300.108H718.007V292.923H710.821ZM608.588 292.923V125.691H594.216V292.923H608.588ZM601.402 132.877H710.168V118.506H601.402V132.877ZM702.982 125.691V151.086H717.353V125.691H702.982ZM710.168 143.901H631.696V158.272H710.168V143.901ZM624.511 151.086V196.487H638.882V151.086H624.511ZM631.696 203.673H704.533V189.301H631.696V203.673ZM697.348 196.487V221.882H711.719V196.487H697.348ZM704.533 214.696H631.696V229.068H704.533V214.696ZM624.511 221.882V267.528H638.882V221.882H624.511ZM631.696 274.713H710.821V260.342H631.696V274.713ZM703.635 267.528V292.923H718.007V267.528H703.635ZM710.821 285.737H601.402V300.108H710.821V285.737ZM741.074 292.923H733.889V300.108H741.074V292.923ZM741.074 125.691V118.506H733.889V125.691H741.074ZM836.122 132.387L832.844 138.782L832.853 138.786L832.861 138.79L836.122 132.387ZM855.964 151.168L849.679 154.651L849.693 154.676L849.707 154.701L855.964 151.168ZM855.883 207.102L849.665 203.5L849.661 203.507L849.657 203.514L855.883 207.102ZM835.877 225.312L838.994 231.786L839.01 231.778L839.026 231.77L835.877 225.312ZM758.712 231.681H751.526V238.866H758.712V231.681ZM758.712 206.531V199.345H751.526V206.531H758.712ZM817.749 203.428L820.598 210.025L820.629 210.011L820.661 209.997L817.749 203.428ZM828.364 194.201L822.131 190.627L822.123 190.64L822.115 190.654L828.364 194.201ZM828.364 163.988L822.072 167.457L822.081 167.474L822.091 167.492L828.364 163.988ZM817.668 154.353L814.633 160.866L814.663 160.88L814.694 160.894L817.668 154.353ZM771.369 151.005V143.819H764.183V151.005H771.369ZM771.369 292.923V300.108H778.554V292.923H771.369ZM827.466 217.146L833.772 213.701L831.729 209.96H827.466V217.146ZM868.866 292.923V300.108H880.98L875.172 289.477L868.866 292.923ZM835.06 292.923L828.729 296.32L830.761 300.108H835.06V292.923ZM794.396 217.146V209.96H782.384L788.064 220.544L794.396 217.146ZM748.26 292.923V125.691H733.889V292.923H748.26ZM741.074 132.877H803.786V118.506H741.074V132.877ZM803.786 132.877C815.837 132.877 825.415 134.975 832.844 138.782L839.399 125.992C829.408 120.872 817.43 118.506 803.786 118.506V132.877ZM832.861 138.79C840.439 142.65 845.957 147.934 849.679 154.651L862.25 147.686C857.043 138.289 849.333 131.052 839.383 125.984L832.861 138.79ZM849.707 154.701C853.525 161.463 855.556 169.543 855.556 179.176H869.927C869.927 167.47 867.44 156.878 862.221 147.635L849.707 154.701ZM855.556 179.176C855.556 188.859 853.5 196.88 849.665 203.5L862.1 210.704C867.411 201.538 869.927 190.941 869.927 179.176H855.556ZM849.657 203.514C845.915 210.005 840.371 215.125 832.727 218.853L839.026 231.77C849.02 226.897 856.813 219.877 862.108 210.691L849.657 203.514ZM832.76 218.837C825.168 222.493 815.469 224.495 803.378 224.495V238.866C816.981 238.866 828.948 236.623 838.994 231.786L832.76 218.837ZM803.378 224.495H758.712V238.866H803.378V224.495ZM765.898 231.681V206.531H751.526V231.681H765.898ZM758.712 213.716H799.295V199.345H758.712V213.716ZM799.295 213.716C807.39 213.716 814.604 212.613 820.598 210.025L814.901 196.831C811.314 198.38 806.225 199.345 799.295 199.345V213.716ZM820.661 209.997C826.666 207.336 831.469 203.288 834.614 197.748L822.115 190.654C820.687 193.17 818.414 195.274 814.838 196.858L820.661 209.997ZM834.598 197.775C837.706 192.355 839.061 186.042 839.061 179.176H824.69C824.69 184.178 823.705 187.881 822.131 190.627L834.598 197.775ZM839.061 179.176C839.061 172.302 837.703 165.972 834.638 160.485L822.091 167.492C823.708 170.388 824.69 174.183 824.69 179.176H839.061ZM834.657 160.519C831.505 154.801 826.713 150.571 820.641 147.811L814.694 160.894C818.203 162.489 820.542 164.683 822.072 167.457L834.657 160.519ZM820.702 147.839C814.643 145.016 807.327 143.819 799.132 143.819V158.19C806.07 158.19 811.111 159.225 814.633 160.866L820.702 147.839ZM799.132 143.819H771.369V158.19H799.132V143.819ZM764.183 151.005V292.923H778.554V151.005H764.183ZM771.369 285.737H741.074V300.108H771.369V285.737ZM821.16 220.591L862.56 296.368L875.172 289.477L833.772 213.701L821.16 220.591ZM868.866 285.737H835.06V300.108H868.866V285.737ZM841.392 289.525L800.727 213.748L788.064 220.544L828.729 296.32L841.392 289.525ZM794.396 224.332H827.466V209.96H794.396V224.332ZM908.734 125.691L915.557 123.436L913.927 118.506H908.734V125.691ZM952.257 257.321L945.434 259.576L947.064 264.506H952.257V257.321ZM953.972 257.321V264.506H959.167L960.795 259.573L953.972 257.321ZM997.413 125.691V118.506H992.217L990.589 123.439L997.413 125.691ZM1030.73 125.691L1037.51 128.081L1040.88 118.506H1030.73V125.691ZM971.773 292.923V300.108H976.859L978.549 295.312L971.773 292.923ZM934.374 292.923L927.596 295.309L929.286 300.108H934.374V292.923ZM875.5 125.691V118.506H865.353L868.722 128.078L875.5 125.691ZM901.912 127.947L945.434 259.576L959.079 255.065L915.557 123.436L901.912 127.947ZM952.257 264.506H953.972V250.135H952.257V264.506ZM960.795 259.573L1004.24 127.943L990.589 123.439L947.148 255.069L960.795 259.573ZM997.413 132.877H1030.73V118.506H997.413V132.877ZM1023.95 123.302L964.996 290.533L978.549 295.312L1037.51 128.081L1023.95 123.302ZM971.773 285.737H934.374V300.108H971.773V285.737ZM941.152 290.536L882.278 123.305L868.722 128.078L927.596 295.309L941.152 290.536ZM875.5 132.877H908.734V118.506H875.5V132.877ZM1052.75 292.923H1045.57V300.108H1052.75V292.923ZM1052.75 125.691V118.506H1045.57V125.691H1052.75ZM1161.52 125.691H1168.71V118.506H1161.52V125.691ZM1161.52 151.086V158.272H1168.71V151.086H1161.52ZM1083.05 151.086V143.901H1075.86V151.086H1083.05ZM1083.05 196.487H1075.86V203.673H1083.05V196.487ZM1155.89 196.487H1163.07V189.301H1155.89V196.487ZM1155.89 221.882V229.068H1163.07V221.882H1155.89ZM1083.05 221.882V214.696H1075.86V221.882H1083.05ZM1083.05 267.528H1075.86V274.713H1083.05V267.528ZM1162.17 267.528H1169.36V260.342H1162.17V267.528ZM1162.17 292.923V300.108H1169.36V292.923H1162.17ZM1059.94 292.923V125.691H1045.57V292.923H1059.94ZM1052.75 132.877H1161.52V118.506H1052.75V132.877ZM1154.33 125.691V151.086H1168.71V125.691H1154.33ZM1161.52 143.901H1083.05V158.272H1161.52V143.901ZM1075.86 151.086V196.487H1090.23V151.086H1075.86ZM1083.05 203.673H1155.89V189.301H1083.05V203.673ZM1148.7 196.487V221.882H1163.07V196.487H1148.7ZM1155.89 214.696H1083.05V229.068H1155.89V214.696ZM1075.86 221.882V267.528H1090.23V221.882H1075.86ZM1083.05 274.713H1162.17V260.342H1083.05V274.713ZM1154.99 267.528V292.923H1169.36V267.528H1154.99ZM1162.17 285.737H1052.75V300.108H1162.17V285.737ZM1283.31 171.664L1276.17 172.427L1276.85 178.849H1283.31V171.664ZM1273.67 155.006L1269.52 160.868L1269.53 160.878L1269.55 160.887L1273.67 155.006ZM1235.54 151.903L1238.33 158.524L1235.54 151.903ZM1225.17 159.66L1219.38 155.411L1219.38 155.411L1225.17 159.66ZM1221.5 170.847L1214.31 170.754L1214.31 170.8V170.847H1221.5ZM1223.86 179.911L1217.75 183.684L1217.78 183.731L1217.81 183.777L1223.86 179.911ZM1230.48 186.443L1226.58 192.476L1226.62 192.504L1226.66 192.53L1230.48 186.443ZM1239.71 190.853L1237.3 197.625L1239.71 190.853ZM1249.91 193.874L1251.66 186.903L1251.62 186.893L1251.58 186.884L1249.91 193.874ZM1265.59 197.794L1263.85 204.765L1263.9 204.779L1263.96 204.792L1265.59 197.794ZM1283.8 203.754L1280.96 210.356L1280.97 210.361L1280.98 210.365L1283.8 203.754ZM1299.56 213.227L1294.99 218.773L1295.01 218.786L1295.02 218.799L1299.56 213.227ZM1307.24 271.855L1313.19 275.882L1313.19 275.872L1313.2 275.861L1307.24 271.855ZM1285.51 289.248L1288.4 295.827L1288.41 295.823L1288.42 295.819L1285.51 289.248ZM1217.41 289.411L1214.62 296.03L1214.62 296.033L1214.63 296.035L1217.41 289.411ZM1195.04 271.774L1189.13 275.855L1189.14 275.869L1189.15 275.883L1195.04 271.774ZM1186.38 243.521V236.335H1178.91L1179.2 243.802L1186.38 243.521ZM1216.19 243.521L1223.35 242.985L1222.86 236.335H1216.19V243.521ZM1221.58 258.056L1227.14 253.51L1221.58 258.056ZM1233.91 266.711L1231.38 273.436L1231.39 273.441L1231.4 273.445L1233.91 266.711ZM1268.37 266.629L1271.01 273.311L1271.03 273.304L1271.05 273.296L1268.37 266.629ZM1280.13 258.301L1285.74 262.789L1285.75 262.769L1285.77 262.748L1280.13 258.301ZM1284.45 245.726L1291.64 245.807L1291.64 245.721L1291.64 245.636L1284.45 245.726ZM1280.62 234.947L1275.19 239.657L1275.21 239.683L1275.23 239.708L1280.62 234.947ZM1270.08 227.761L1267.19 234.341L1267.24 234.362L1267.29 234.382L1270.08 227.761ZM1254.4 222.535L1252.61 229.494L1252.62 229.496L1252.63 229.499L1254.4 222.535ZM1235.38 217.636L1237.17 210.677L1237.17 210.676L1235.38 217.636ZM1202.72 201.55L1197.88 206.862L1197.9 206.879L1197.91 206.896L1202.72 201.55ZM1198.8 146.84L1192.99 142.611L1192.98 142.625L1192.97 142.639L1198.8 146.84ZM1220.76 129.611L1223.66 136.185L1223.68 136.178L1223.69 136.171L1220.76 129.611ZM1283.39 129.611L1280.37 136.131L1280.39 136.142L1280.42 136.153L1283.39 129.611ZM1304.54 146.677L1298.66 150.804L1298.67 150.814L1298.67 150.824L1304.54 146.677ZM1312.46 171.664V178.849H1319.77L1319.65 171.539L1312.46 171.664ZM1290.46 170.9C1289.48 161.794 1285.23 154.339 1277.8 149.124L1269.55 160.887C1273.44 163.621 1275.61 167.271 1276.17 172.427L1290.46 170.9ZM1277.83 149.143C1270.68 144.079 1261.81 141.859 1251.79 141.859V156.231C1259.74 156.231 1265.45 157.985 1269.52 160.868L1277.83 149.143ZM1251.79 141.859C1244.78 141.859 1238.37 142.913 1232.75 145.282L1238.33 158.524C1241.75 157.082 1246.17 156.231 1251.79 156.231V141.859ZM1232.75 145.282C1227.29 147.585 1222.69 150.896 1219.38 155.411L1230.97 163.91C1232.45 161.892 1234.76 160.031 1238.33 158.524L1232.75 145.282ZM1219.38 155.411C1216.06 159.928 1214.38 165.122 1214.31 170.754L1228.68 170.94C1228.72 168.189 1229.49 165.925 1230.97 163.91L1219.38 155.411ZM1214.31 170.847C1214.31 175.448 1215.37 179.821 1217.75 183.684L1229.98 176.138C1229.21 174.884 1228.68 173.214 1228.68 170.847H1214.31ZM1217.81 183.777C1220.04 187.279 1223.01 190.171 1226.58 192.476L1234.38 180.41C1232.39 179.123 1230.95 177.66 1229.92 176.045L1217.81 183.777ZM1226.66 192.53C1229.92 194.576 1233.48 196.267 1237.3 197.625L1242.11 184.081C1239.18 183.043 1236.59 181.795 1234.3 180.357L1226.66 192.53ZM1237.3 197.625C1240.92 198.907 1244.57 199.987 1248.25 200.864L1251.58 186.884C1248.4 186.128 1245.25 185.194 1242.11 184.081L1237.3 197.625ZM1248.17 200.845L1263.85 204.765L1267.33 190.822L1251.66 186.903L1248.17 200.845ZM1263.96 204.792C1269.87 206.168 1275.54 208.023 1280.96 210.356L1286.64 197.153C1280.41 194.477 1273.94 192.359 1267.22 190.795L1263.96 204.792ZM1280.98 210.365C1286.27 212.618 1290.93 215.427 1294.99 218.773L1304.13 207.68C1298.94 203.404 1293.09 199.899 1286.62 197.143L1280.98 210.365ZM1295.02 218.799C1298.92 221.973 1301.98 225.777 1304.25 230.266L1317.08 223.787C1313.9 217.497 1309.56 212.102 1304.1 207.654L1295.02 218.799ZM1304.25 230.266C1306.37 234.47 1307.56 239.634 1307.56 245.97H1321.93C1321.93 237.827 1320.4 230.362 1317.08 223.787L1304.25 230.266ZM1307.56 245.97C1307.56 254.478 1305.41 261.684 1301.27 267.849L1313.2 275.861C1319.08 267.111 1321.93 257.061 1321.93 245.97H1307.56ZM1301.28 267.829C1297.14 273.947 1291.05 278.943 1282.61 282.677L1288.42 295.819C1298.93 291.17 1307.31 284.57 1313.19 275.882L1301.28 267.829ZM1282.62 282.669C1274.35 286.305 1263.98 288.268 1251.3 288.268V302.64C1265.4 302.64 1277.85 300.466 1288.4 295.827L1282.62 282.669ZM1251.3 288.268C1239.01 288.268 1228.71 286.364 1220.2 282.787L1214.63 296.035C1225.28 300.515 1237.57 302.64 1251.3 302.64V288.268ZM1220.21 282.793C1211.81 279.239 1205.47 274.176 1200.93 267.664L1189.15 275.883C1195.38 284.832 1203.97 291.527 1214.62 296.03L1220.21 282.793ZM1200.95 267.692C1196.53 261.275 1193.96 253.236 1193.56 243.239L1179.2 243.802C1179.68 256.016 1182.89 266.813 1189.13 275.855L1200.95 267.692ZM1186.38 250.707H1216.19V236.335H1186.38V250.707ZM1209.02 244.057C1209.55 251.093 1211.77 257.411 1216.01 262.602L1227.14 253.51C1225.07 250.97 1223.7 247.598 1223.35 242.985L1209.02 244.057ZM1216.01 262.602C1220.04 267.529 1225.23 271.123 1231.38 273.436L1236.44 259.986C1232.46 258.488 1229.43 256.312 1227.14 253.51L1216.01 262.602ZM1231.4 273.445C1237.44 275.692 1244.02 276.755 1251.06 276.755V262.383C1245.47 262.383 1240.62 261.541 1236.42 259.977L1231.4 273.445ZM1251.06 276.755C1258.34 276.755 1265.04 275.672 1271.01 273.311L1265.72 259.948C1261.78 261.506 1256.94 262.383 1251.06 262.383V276.755ZM1271.05 273.296C1276.98 270.909 1282 267.463 1285.74 262.789L1274.51 253.812C1272.59 256.214 1269.77 258.322 1265.69 259.963L1271.05 273.296ZM1285.77 262.748C1289.63 257.848 1291.57 252.102 1291.64 245.807L1277.27 245.644C1277.23 248.93 1276.28 251.568 1274.48 253.853L1285.77 262.748ZM1291.64 245.636C1291.57 239.836 1289.82 234.501 1286 230.186L1275.23 239.708C1276.42 241.054 1277.23 242.905 1277.27 245.815L1291.64 245.636ZM1286.04 230.237C1282.64 226.32 1278.13 223.355 1272.87 221.14L1267.29 234.382C1271.07 235.978 1273.58 237.803 1275.19 239.657L1286.04 230.237ZM1272.97 221.182C1268.07 219.028 1262.45 217.169 1256.18 215.572L1252.63 229.499C1258.33 230.95 1263.17 232.575 1267.19 234.341L1272.97 221.182ZM1256.2 215.577L1237.17 210.677L1233.59 224.595L1252.61 229.494L1256.2 215.577ZM1237.17 210.676C1224.17 207.336 1214.43 202.409 1207.52 196.203L1197.91 206.896C1207.01 215.062 1219.04 220.859 1233.59 224.596L1237.17 210.676ZM1207.55 196.238C1201.28 190.523 1197.98 182.935 1197.98 172.725H1183.61C1183.61 186.467 1188.25 198.097 1197.88 206.862L1207.55 196.238ZM1197.98 172.725C1197.98 164.253 1200.24 157.122 1204.63 151.041L1192.97 142.639C1186.68 151.365 1183.61 161.491 1183.61 172.725H1197.98ZM1204.61 151.069C1209.17 144.795 1215.44 139.811 1223.66 136.185L1217.86 123.037C1207.57 127.576 1199.2 134.079 1192.99 142.611L1204.61 151.069ZM1223.69 136.171C1231.89 132.505 1241.35 130.591 1252.2 130.591V116.219C1239.64 116.219 1228.14 118.442 1217.83 123.051L1223.69 136.171ZM1252.2 130.591C1263.23 130.591 1272.56 132.513 1280.37 136.131L1286.41 123.091C1276.36 118.434 1264.9 116.219 1252.2 116.219V130.591ZM1280.42 136.153C1288.36 139.763 1294.35 144.669 1298.66 150.804L1310.42 142.55C1304.49 134.096 1296.39 127.624 1286.37 123.069L1280.42 136.153ZM1298.67 150.824C1302.9 156.811 1305.14 163.718 1305.28 171.788L1319.65 171.539C1319.46 160.774 1316.41 151.023 1310.41 142.53L1298.67 150.824ZM1312.46 164.478H1283.31V178.849H1312.46V164.478ZM1341.76 292.923H1334.57V300.108H1341.76V292.923ZM1341.76 125.691V118.506H1334.57V125.691H1341.76ZM1436.8 132.877L1433.34 139.173L1433.35 139.178L1433.36 139.182L1436.8 132.877ZM1456.65 152.638L1450.3 156.015L1450.32 156.04L1450.33 156.064L1456.65 152.638ZM1456.65 209.634L1462.96 213.06L1456.65 209.634ZM1436.64 229.313L1440.04 235.643L1440.05 235.635L1440.07 235.627L1436.64 229.313ZM1362.5 236.417H1355.31V243.602H1362.5V236.417ZM1362.5 211.512V204.326H1355.31V211.512H1362.5ZM1418.43 207.592L1421.87 213.901L1418.43 207.592ZM1429.05 196.814L1422.65 193.539L1422.63 193.57L1422.62 193.6L1429.05 196.814ZM1429.05 165.376L1422.63 168.621L1422.65 168.651L1422.67 168.682L1429.05 165.376ZM1418.35 154.843L1414.96 161.181L1415.01 161.204L1415.05 161.226L1418.35 154.843ZM1372.05 151.005V143.819H1364.86V151.005H1372.05ZM1372.05 292.923V300.108H1379.24V292.923H1372.05ZM1348.94 292.923V125.691H1334.57V292.923H1348.94ZM1341.76 132.877H1404.47V118.506H1341.76V132.877ZM1404.47 132.877C1416.45 132.877 1425.96 135.113 1433.34 139.173L1440.27 126.581C1430.23 121.061 1418.18 118.506 1404.47 118.506V132.877ZM1433.36 139.182C1440.96 143.337 1446.53 148.935 1450.3 156.015L1462.99 149.261C1457.83 139.574 1450.18 131.998 1440.25 126.572L1433.36 139.182ZM1450.33 156.064C1454.21 163.22 1456.24 171.489 1456.24 181.054H1470.61C1470.61 169.388 1468.12 158.714 1462.96 149.211L1450.33 156.064ZM1456.24 181.054C1456.24 190.741 1454.2 199.062 1450.33 206.207L1462.96 213.06C1468.12 203.547 1470.61 192.815 1470.61 181.054H1456.24ZM1450.33 206.207C1446.51 213.241 1440.88 218.83 1433.21 222.998L1440.07 235.627C1450.03 230.214 1457.74 222.684 1462.96 213.06L1450.33 206.207ZM1433.24 222.982C1425.72 227.018 1416.11 229.231 1404.06 229.231V243.602C1417.81 243.602 1429.92 241.08 1440.04 235.643L1433.24 222.982ZM1404.06 229.231H1362.5V243.602H1404.06V229.231ZM1369.68 236.417V211.512H1355.31V236.417H1369.68ZM1362.5 218.697H1399.98V204.326H1362.5V218.697ZM1399.98 218.697C1408.26 218.697 1415.7 217.265 1421.87 213.901L1414.99 201.284C1411.58 203.145 1406.72 204.326 1399.98 204.326V218.697ZM1421.87 213.901C1427.86 210.635 1432.48 206.002 1435.47 200.027L1422.62 193.6C1421.03 196.77 1418.58 199.324 1414.99 201.284L1421.87 213.901ZM1435.44 200.088C1438.38 194.355 1439.74 187.949 1439.74 181.054H1425.37C1425.37 186.026 1424.4 190.127 1422.65 193.539L1435.44 200.088ZM1439.74 181.054C1439.74 174.161 1438.38 167.768 1435.43 162.071L1422.67 168.682C1424.4 172.021 1425.37 176.08 1425.37 181.054H1439.74ZM1435.46 162.132C1432.44 156.16 1427.72 151.6 1421.65 148.459L1415.05 161.226C1418.66 163.093 1421.08 165.555 1422.63 168.621L1435.46 162.132ZM1421.73 148.504C1415.57 145.214 1408.12 143.819 1399.81 143.819V158.19C1406.64 158.19 1411.54 159.354 1414.96 161.181L1421.73 148.504ZM1399.81 143.819H1372.05V158.19H1399.81V143.819ZM1364.86 151.005V292.923H1379.24V151.005H1364.86ZM1372.05 285.737H1341.76V300.108H1372.05V285.737ZM1492.57 292.923V300.108H1497.74L1499.39 295.207L1492.57 292.923ZM1460.24 292.923L1453.46 290.536L1450.09 300.108H1460.24V292.923ZM1519.11 125.691V118.506H1514.02L1512.33 123.305L1519.11 125.691ZM1556.51 125.691L1563.29 123.302L1561.6 118.506H1556.51V125.691ZM1615.47 292.923V300.108H1625.62L1622.24 290.533L1615.47 292.923ZM1583.13 292.923L1576.32 295.211L1577.96 300.108H1583.13V292.923ZM1538.46 159.987L1545.28 157.698L1543.63 152.801H1538.46V159.987ZM1537.16 159.987V152.801H1531.99L1530.34 157.702L1537.16 159.987ZM1493.64 227.353V220.167H1486.45V227.353H1493.64ZM1581.82 227.353H1589.01V220.167H1581.82V227.353ZM1581.82 251.686V258.872H1589.01V251.686H1581.82ZM1493.64 251.686H1486.45V258.872H1493.64V251.686ZM1492.57 285.737H1460.24V300.108H1492.57V285.737ZM1467.02 295.309L1525.89 128.078L1512.33 123.305L1453.46 290.536L1467.02 295.309ZM1519.11 132.877H1556.51V118.506H1519.11V132.877ZM1549.73 128.081L1608.69 295.312L1622.24 290.533L1563.29 123.302L1549.73 128.081ZM1615.47 285.737H1583.13V300.108H1615.47V285.737ZM1589.94 290.634L1545.28 157.698L1531.65 162.276L1576.32 295.211L1589.94 290.634ZM1538.46 152.801H1537.16V167.173H1538.46V152.801ZM1530.34 157.702L1485.76 290.638L1499.39 295.207L1543.97 162.272L1530.34 157.702ZM1493.64 234.539H1581.82V220.167H1493.64V234.539ZM1574.64 227.353V251.686H1589.01V227.353H1574.64ZM1581.82 244.501H1493.64V258.872H1581.82V244.501ZM1500.82 251.686V227.353H1486.45V251.686H1500.82ZM1637.49 292.923H1630.31V300.108H1637.49V292.923ZM1637.49 125.691V118.506H1630.31V125.691H1637.49ZM1732.54 132.387L1729.26 138.782L1729.27 138.786L1729.28 138.79L1732.54 132.387ZM1752.38 151.168L1746.1 154.651L1746.11 154.676L1746.12 154.701L1752.38 151.168ZM1752.3 207.102L1746.08 203.5L1746.08 203.507L1746.07 203.514L1752.3 207.102ZM1732.29 225.312L1735.41 231.786L1735.43 231.778L1735.44 231.77L1732.29 225.312ZM1655.13 231.681H1647.94V238.866H1655.13V231.681ZM1655.13 206.531V199.345H1647.94V206.531H1655.13ZM1714.17 203.428L1717.02 210.025L1717.05 210.011L1717.08 209.997L1714.17 203.428ZM1724.78 194.201L1718.55 190.627L1718.54 190.64L1718.53 190.654L1724.78 194.201ZM1724.78 163.988L1718.49 167.457L1718.5 167.474L1718.51 167.492L1724.78 163.988ZM1714.09 154.353L1711.05 160.866L1711.08 160.88L1711.11 160.894L1714.09 154.353ZM1667.79 151.005V143.819H1660.6V151.005H1667.79ZM1667.79 292.923V300.108H1674.97V292.923H1667.79ZM1723.88 217.146L1730.19 213.701L1728.15 209.96H1723.88V217.146ZM1765.28 292.923V300.108H1777.4L1771.59 289.477L1765.28 292.923ZM1731.48 292.923L1725.15 296.32L1727.18 300.108H1731.48V292.923ZM1690.81 217.146V209.96H1678.8L1684.48 220.544L1690.81 217.146ZM1644.68 292.923V125.691H1630.31V292.923H1644.68ZM1637.49 132.877H1700.2V118.506H1637.49V132.877ZM1700.2 132.877C1712.25 132.877 1721.83 134.975 1729.26 138.782L1735.82 125.992C1725.83 120.872 1713.85 118.506 1700.2 118.506V132.877ZM1729.28 138.79C1736.86 142.65 1742.38 147.934 1746.1 154.651L1758.67 147.686C1753.46 138.289 1745.75 131.052 1735.8 125.984L1729.28 138.79ZM1746.12 154.701C1749.94 161.463 1751.97 169.543 1751.97 179.176H1766.35C1766.35 167.47 1763.86 156.878 1758.64 147.635L1746.12 154.701ZM1751.97 179.176C1751.97 188.859 1749.92 196.88 1746.08 203.5L1758.52 210.704C1763.83 201.538 1766.35 190.941 1766.35 179.176H1751.97ZM1746.07 203.514C1742.33 210.005 1736.79 215.125 1729.15 218.853L1735.44 231.77C1745.44 226.897 1753.23 219.877 1758.53 210.691L1746.07 203.514ZM1729.18 218.837C1721.59 222.493 1711.89 224.495 1699.8 224.495V238.866C1713.4 238.866 1725.37 236.623 1735.41 231.786L1729.18 218.837ZM1699.8 224.495H1655.13V238.866H1699.8V224.495ZM1662.32 231.681V206.531H1647.94V231.681H1662.32ZM1655.13 213.716H1695.71V199.345H1655.13V213.716ZM1695.71 213.716C1703.81 213.716 1711.02 212.613 1717.02 210.025L1711.32 196.831C1707.73 198.38 1702.64 199.345 1695.71 199.345V213.716ZM1717.08 209.997C1723.08 207.336 1727.89 203.288 1731.03 197.748L1718.53 190.654C1717.1 193.17 1714.83 195.274 1711.26 196.858L1717.08 209.997ZM1731.02 197.775C1734.12 192.355 1735.48 186.042 1735.48 179.176H1721.11C1721.11 184.178 1720.12 187.881 1718.55 190.627L1731.02 197.775ZM1735.48 179.176C1735.48 172.302 1734.12 165.972 1731.06 160.485L1718.51 167.492C1720.13 170.388 1721.11 174.183 1721.11 179.176H1735.48ZM1731.08 160.519C1727.92 154.801 1723.13 150.571 1717.06 147.811L1711.11 160.894C1714.62 162.489 1716.96 164.683 1718.49 167.457L1731.08 160.519ZM1717.12 147.839C1711.06 145.016 1703.74 143.819 1695.55 143.819V158.19C1702.49 158.19 1707.53 159.225 1711.05 160.866L1717.12 147.839ZM1695.55 143.819H1667.79V158.19H1695.55V143.819ZM1660.6 151.005V292.923H1674.97V151.005H1660.6ZM1667.79 285.737H1637.49V300.108H1667.79V285.737ZM1717.58 220.591L1758.98 296.368L1771.59 289.477L1730.19 213.701L1717.58 220.591ZM1765.28 285.737H1731.48V300.108H1765.28V285.737ZM1737.81 289.525L1697.15 213.748L1684.48 220.544L1725.15 296.32L1737.81 289.525ZM1690.81 224.332H1723.88V209.96H1690.81V224.332ZM1787.04 292.923H1779.86V300.108H1787.04V292.923ZM1787.04 125.691V118.506H1779.86V125.691H1787.04ZM1817.34 125.691H1824.52V118.506H1817.34V125.691ZM1817.34 202.53H1810.15V209.715H1817.34V202.53ZM1819.38 202.53V209.715H1822.71L1824.86 207.181L1819.38 202.53ZM1884.62 125.691V118.506H1881.3L1879.15 121.04L1884.62 125.691ZM1921.61 125.691L1927.06 130.382L1937.29 118.506H1921.61V125.691ZM1856.94 200.733L1851.5 196.042L1847.83 200.298L1851.08 204.884L1856.94 200.733ZM1922.19 292.923V300.108H1936.07L1928.05 288.772L1922.19 292.923ZM1885.77 292.923L1879.87 297.027L1882.01 300.108H1885.77V292.923ZM1835.88 221.229L1841.77 217.124L1836.43 209.451L1830.39 216.584L1835.88 221.229ZM1817.34 243.113L1811.86 238.468L1810.15 240.478V243.113H1817.34ZM1817.34 292.923V300.108H1824.52V292.923H1817.34ZM1794.23 292.923V125.691H1779.86V292.923H1794.23ZM1787.04 132.877H1817.34V118.506H1787.04V132.877ZM1810.15 125.691V202.53H1824.52V125.691H1810.15ZM1817.34 209.715H1819.38V195.344H1817.34V209.715ZM1824.86 207.181L1890.1 130.342L1879.15 121.04L1813.9 197.879L1824.86 207.181ZM1884.62 132.877H1921.61V118.506H1884.62V132.877ZM1916.17 121L1851.5 196.042L1862.39 205.424L1927.06 130.382L1916.17 121ZM1851.08 204.884L1916.32 297.074L1928.05 288.772L1862.81 196.582L1851.08 204.884ZM1922.19 285.737H1885.77V300.108H1922.19V285.737ZM1891.66 288.818L1841.77 217.124L1829.98 225.333L1879.87 297.027L1891.66 288.818ZM1830.39 216.584L1811.86 238.468L1822.82 247.757L1841.36 225.873L1830.39 216.584ZM1810.15 243.113V292.923H1824.52V243.113H1810.15ZM1817.34 285.737H1787.04V300.108H1817.34V285.737ZM2032.65 171.664L2025.5 172.427L2026.19 178.849H2032.65V171.664ZM2023.01 155.006L2018.85 160.868L2018.87 160.878L2018.88 160.887L2023.01 155.006ZM1984.88 151.903L1987.67 158.524L1984.88 151.903ZM1974.51 159.66L1968.71 155.411V155.411L1974.51 159.66ZM1970.83 170.847L1963.65 170.754L1963.65 170.8V170.847H1970.83ZM1973.2 179.911L1967.08 183.684L1967.11 183.731L1967.14 183.777L1973.2 179.911ZM1979.81 186.443L1975.91 192.476L1975.95 192.504L1975.99 192.53L1979.81 186.443ZM1989.04 190.853L1986.64 197.625L1989.04 190.853ZM1999.25 193.874L2000.99 186.903L2000.95 186.893L2000.91 186.884L1999.25 193.874ZM2014.93 197.794L2013.18 204.765L2013.24 204.779L2013.3 204.792L2014.93 197.794ZM2033.14 203.754L2030.3 210.356L2030.31 210.361L2030.32 210.365L2033.14 203.754ZM2048.89 213.227L2044.33 218.773L2044.34 218.786L2044.36 218.799L2048.89 213.227ZM2056.57 271.855L2062.52 275.882L2062.53 275.872L2062.54 275.861L2056.57 271.855ZM2034.85 289.248L2037.74 295.827L2037.75 295.823L2037.76 295.819L2034.85 289.248ZM1966.75 289.411L1963.95 296.03L1963.96 296.033L1963.96 296.035L1966.75 289.411ZM1944.38 271.774L1938.46 275.855L1938.47 275.869L1938.48 275.883L1944.38 271.774ZM1935.72 243.521V236.335H1928.25L1928.54 243.802L1935.72 243.521ZM1965.52 243.521L1972.69 242.985L1972.19 236.335H1965.52V243.521ZM1970.91 258.056L1976.48 253.51L1970.91 258.056ZM1983.24 266.711L1980.71 273.436L1980.72 273.441L1980.74 273.445L1983.24 266.711ZM2017.7 266.629L2020.35 273.311L2020.36 273.304L2020.38 273.296L2017.7 266.629ZM2029.46 258.301L2035.07 262.789L2035.09 262.769L2035.1 262.748L2029.46 258.301ZM2033.79 245.726L2040.97 245.807L2040.97 245.721L2040.97 245.636L2033.79 245.726ZM2029.95 234.947L2024.52 239.657L2024.55 239.683L2024.57 239.708L2029.95 234.947ZM2019.42 227.761L2016.53 234.341L2016.58 234.362L2016.62 234.382L2019.42 227.761ZM2003.74 222.535L2001.95 229.494L2001.96 229.496L2001.97 229.499L2003.74 222.535ZM1984.71 217.636L1986.51 210.677L1986.5 210.676L1984.71 217.636ZM1952.05 201.55L1947.21 206.862L1947.23 206.879L1947.25 206.896L1952.05 201.55ZM1948.13 146.84L1942.32 142.611L1942.31 142.625L1942.3 142.639L1948.13 146.84ZM1970.1 129.611L1973 136.185L1973.01 136.178L1973.03 136.171L1970.1 129.611ZM2032.73 129.611L2029.71 136.131L2029.73 136.142L2029.75 136.153L2032.73 129.611ZM2053.88 146.677L2047.99 150.804L2048 150.814L2048.01 150.824L2053.88 146.677ZM2061.8 171.664V178.849H2069.11L2068.98 171.539L2061.8 171.664ZM2039.79 170.9C2038.82 161.794 2034.57 154.339 2027.14 149.124L2018.88 160.887C2022.78 163.621 2024.95 167.271 2025.5 172.427L2039.79 170.9ZM2027.16 149.143C2020.02 144.079 2011.14 141.859 2001.13 141.859V156.231C2009.07 156.231 2014.79 157.985 2018.85 160.868L2027.16 149.143ZM2001.13 141.859C1994.12 141.859 1987.7 142.913 1982.08 145.282L1987.67 158.524C1991.09 157.082 1995.51 156.231 2001.13 156.231V141.859ZM1982.08 145.282C1976.62 147.585 1972.02 150.896 1968.71 155.411L1980.3 163.91C1981.78 161.892 1984.09 160.031 1987.67 158.524L1982.08 145.282ZM1968.71 155.411C1965.4 159.928 1963.72 165.122 1963.65 170.754L1978.02 170.94C1978.05 168.189 1978.82 165.925 1980.3 163.91L1968.71 155.411ZM1963.65 170.847C1963.65 175.448 1964.7 179.821 1967.08 183.684L1979.32 176.138C1978.54 174.884 1978.02 173.214 1978.02 170.847H1963.65ZM1967.14 183.777C1969.38 187.279 1972.35 190.171 1975.91 192.476L1983.72 180.41C1981.73 179.123 1980.29 177.66 1979.26 176.045L1967.14 183.777ZM1975.99 192.53C1979.26 194.576 1982.81 196.267 1986.64 197.625L1991.44 184.081C1988.52 183.043 1985.92 181.795 1983.63 180.357L1975.99 192.53ZM1986.64 197.625C1990.25 198.907 1993.9 199.987 1997.58 200.864L2000.91 186.884C1997.74 186.128 1994.58 185.194 1991.44 184.081L1986.64 197.625ZM1997.51 200.845L2013.18 204.765L2016.67 190.822L2000.99 186.903L1997.51 200.845ZM2013.3 204.792C2019.21 206.168 2024.87 208.023 2030.3 210.356L2035.97 197.153C2029.75 194.477 2023.27 192.359 2016.55 190.795L2013.3 204.792ZM2030.32 210.365C2035.61 212.618 2040.26 215.427 2044.33 218.773L2053.46 207.68C2048.27 203.404 2042.42 199.899 2035.95 197.143L2030.32 210.365ZM2044.36 218.799C2048.26 221.973 2051.32 225.777 2053.59 230.266L2066.41 223.787C2063.24 217.497 2058.9 212.102 2053.43 207.654L2044.36 218.799ZM2053.59 230.266C2055.71 234.47 2056.9 239.634 2056.9 245.97H2071.27C2071.27 237.827 2069.73 230.362 2066.41 223.787L2053.59 230.266ZM2056.9 245.97C2056.9 254.478 2054.75 261.684 2050.6 267.849L2062.54 275.861C2068.41 267.111 2071.27 257.061 2071.27 245.97H2056.9ZM2050.62 267.829C2046.48 273.947 2040.38 278.943 2031.94 282.677L2037.76 295.819C2048.26 291.17 2056.64 284.57 2062.52 275.882L2050.62 267.829ZM2031.96 282.669C2023.68 286.305 2013.32 288.268 2000.64 288.268V302.64C2014.74 302.64 2027.18 300.466 2037.74 295.827L2031.96 282.669ZM2000.64 288.268C1988.35 288.268 1978.04 286.364 1969.53 282.787L1963.96 296.035C1974.62 300.515 1986.9 302.64 2000.64 302.64V288.268ZM1969.55 282.793C1961.14 279.239 1954.81 274.176 1950.27 267.664L1938.48 275.883C1944.72 284.832 1953.3 291.527 1963.95 296.03L1969.55 282.793ZM1950.29 267.692C1945.86 261.275 1943.29 253.236 1942.9 243.239L1928.54 243.802C1929.02 256.016 1932.22 266.813 1938.46 275.855L1950.29 267.692ZM1935.72 250.707H1965.52V236.335H1935.72V250.707ZM1958.36 244.057C1958.88 251.093 1961.11 257.411 1965.35 262.602L1976.48 253.51C1974.4 250.97 1973.03 247.598 1972.69 242.985L1958.36 244.057ZM1965.35 262.602C1969.37 267.529 1974.57 271.123 1980.71 273.436L1985.77 259.986C1981.79 258.488 1978.77 256.312 1976.48 253.51L1965.35 262.602ZM1980.74 273.445C1986.77 275.692 1993.35 276.755 2000.39 276.755V262.383C1994.8 262.383 1989.95 261.541 1985.75 259.977L1980.74 273.445ZM2000.39 276.755C2007.68 276.755 2014.38 275.672 2020.35 273.311L2015.06 259.948C2011.12 261.506 2006.28 262.383 2000.39 262.383V276.755ZM2020.38 273.296C2026.32 270.909 2031.33 267.463 2035.07 262.789L2023.85 253.812C2021.93 256.214 2019.1 258.322 2015.02 259.963L2020.38 273.296ZM2035.1 262.748C2038.97 257.848 2040.9 252.102 2040.97 245.807L2026.6 245.644C2026.57 248.93 2025.62 251.568 2023.82 253.853L2035.1 262.748ZM2040.97 245.636C2040.9 239.836 2039.15 234.501 2035.33 230.186L2024.57 239.708C2025.76 241.054 2026.57 242.905 2026.6 245.815L2040.97 245.636ZM2035.38 230.237C2031.98 226.32 2027.46 223.355 2022.21 221.14L2016.62 234.382C2020.41 235.978 2022.91 237.803 2024.52 239.657L2035.38 230.237ZM2022.31 221.182C2017.4 219.028 2011.79 217.169 2005.51 215.572L2001.97 229.499C2007.67 230.95 2012.51 232.575 2016.53 234.341L2022.31 221.182ZM2005.53 215.577L1986.51 210.677L1982.92 224.595L2001.95 229.494L2005.53 215.577ZM1986.5 210.676C1973.5 207.336 1963.76 202.409 1956.85 196.203L1947.25 206.896C1956.34 215.062 1968.38 220.859 1982.93 224.596L1986.5 210.676ZM1956.89 196.238C1950.62 190.523 1947.31 182.935 1947.31 172.725H1932.94C1932.94 186.467 1937.59 198.097 1947.21 206.862L1956.89 196.238ZM1947.31 172.725C1947.31 164.253 1949.58 157.122 1953.96 151.041L1942.3 142.639C1936.01 151.365 1932.94 161.491 1932.94 172.725H1947.31ZM1953.94 151.069C1958.51 144.795 1964.78 139.811 1973 136.185L1967.2 123.037C1956.91 127.576 1948.53 134.079 1942.32 142.611L1953.94 151.069ZM1973.03 136.171C1981.23 132.505 1990.69 130.591 2001.53 130.591V116.219C1988.97 116.219 1977.47 118.442 1967.16 123.051L1973.03 136.171ZM2001.53 130.591C2012.57 130.591 2021.9 132.513 2029.71 136.131L2035.75 123.091C2025.7 118.434 2014.23 116.219 2001.53 116.219V130.591ZM2029.75 136.153C2037.7 139.763 2043.69 144.669 2047.99 150.804L2059.76 142.55C2053.83 134.096 2045.72 127.624 2035.7 123.069L2029.75 136.153ZM2048.01 150.824C2052.24 156.811 2054.47 163.718 2054.61 171.788L2068.98 171.539C2068.79 160.774 2065.75 151.023 2059.74 142.53L2048.01 150.824ZM2061.8 164.478H2032.65V178.849H2061.8V164.478Z" fill="white" mask="url(#path-5-inside-1_2058_4497)"/>
</svg>
